<svg width="44" height="44" viewBox="0 0 44 44" fill="none" xmlns="http://www.w3.org/2000/svg">
<path d="M43.1922 20.0578C44.2664 21.132 44.2664 22.8765 43.1922 23.9508L32.1922 34.9508C31.118 36.025 29.3734 36.025 28.2992 34.9508C27.225 33.8765 27.225 32.132 28.2992 31.0578L34.607 24.75H16.5C14.9789 24.75 13.75 23.5211 13.75 22C13.75 20.4789 14.9789 19.25 16.5 19.25H34.607L28.2992 12.9422C27.225 11.8679 27.225 10.1234 28.2992 9.04919C29.3734 7.97498 31.118 7.97498 32.1922 9.04919L43.1922 20.0492V20.0578Z" fill="white"/>
<path opacity="0.4" d="M16.5 5.5C16.5 7.02109 15.2711 8.25 13.75 8.25H8.25C6.72891 8.25 5.5 9.47891 5.5 11V33C5.5 34.5211 6.72891 35.75 8.25 35.75H13.75C15.2711 35.75 16.5 36.9789 16.5 38.5C16.5 40.0211 15.2711 41.25 13.75 41.25H8.25C3.69531 41.25 0 37.5547 0 33V11C0 6.44531 3.69531 2.75 8.25 2.75H13.75C15.2711 2.75 16.5 3.97891 16.5 5.5Z" fill="white"/>
</svg>
